<svg width="60" height="60" viewBox="0 0 60 60" fill="none" xmlns="http://www.w3.org/2000/svg">
<g id="logo" clip-path="url(#clip0_1_93)">
<g id="Group">
<path id="Vector" d="M14.2169 11.7417C14.2169 15.6676 11.0343 18.8502 7.10844 18.8502C3.18257 18.8502 0 15.6676 0 11.7417C0 7.81587 3.18257 4.6333 7.10844 4.6333C11.0343 4.6333 14.2169 7.81587 14.2169 11.7417Z" fill="black"/>
<path id="Vector_2" d="M15.7266 35.4187L30.785 20.3603C33.3441 17.8012 33.3441 13.6527 30.785 11.0936C28.2263 8.53454 24.0774 8.53454 21.5183 11.0936L6.45993 26.152C3.90121 28.7111 3.90121 32.8596 6.45993 35.4187C9.01903 37.9778 13.1679 37.9778 15.7266 35.4187Z" fill="black"/>
<path id="Vector_3" d="M60 55.3666L39.7969 35.1635L48.4845 26.4759C51.0436 23.9172 51.0436 19.7683 48.4845 17.2092C45.9257 14.6505 41.7769 14.6501 39.2178 17.2088L12.5759 43.8507C10.0168 46.4094 10.0168 50.5583 12.5759 53.1174C15.135 55.6761 19.2835 55.6761 21.8426 53.1174L30.5302 44.4298L41.4667 55.3662H60V55.3666Z" fill="black"/>
</g>
</g>
<defs>
<clipPath id="clip0_1_93">
<rect width="60" height="60" fill="white"/>
</clipPath>
</defs>
</svg>
